HIERARCHY
	ROOT Hips
	{
		OFFSET 0 0 0 
		CHANNELS 6 Xposition Yposition Zposition Zrotation Xrotation Yrotation
		JOINT LHipJoint
		{
			OFFSET 0 0 0 
			CHANNELS 3 Zrotation Xrotation Yrotation
			JOINT LeftUpLeg
			{
				OFFSET 0.0783705 -0.0912565 0.0336595 
				CHANNELS 3 Zrotation Xrotation Yrotation
				JOINT LeftLeg
				{
					OFFSET 0.117854 -0.323802 0 
					CHANNELS 3 Zrotation Xrotation Yrotation
					JOINT LeftFoot
					{
						OFFSET 0.135318 -0.371784 0 
						CHANNELS 3 Zrotation Xrotation Yrotation
						JOINT LeftToeBase
						{
							OFFSET 0.0102135 -0.028061 0.104268 
							CHANNELS 3 Zrotation Xrotation Yrotation
							End Site
							{
								OFFSET 0 -0 0.0542675
							}
						}
					}
				}
			}
		}
		JOINT RHipJoint
		{
			OFFSET 0 0 0 
			CHANNELS 3 Zrotation Xrotation Yrotation
			JOINT RightUpLeg
			{
				OFFSET -0.075711 -0.0912565 0.0336595 
				CHANNELS 3 Zrotation Xrotation Yrotation
				JOINT RightLeg
				{
					OFFSET -0.124412 -0.341819 0 
					CHANNELS 3 Zrotation Xrotation Yrotation
					JOINT RightFoot
					{
						OFFSET -0.135017 -0.370955 0 
						CHANNELS 3 Zrotation Xrotation Yrotation
						JOINT RightToeBase
						{
							OFFSET -0.009875 -0.0271315 0.111076 
							CHANNELS 3 Zrotation Xrotation Yrotation
							End Site
							{
								OFFSET -0 -0 0.0574575
							}
						}
					}
				}
			}
		}
		JOINT LowerBack
		{
			OFFSET 0 0 0 
			CHANNELS 3 Zrotation Xrotation Yrotation
			JOINT Spine
			{
				OFFSET -0.0007835 0.106437 -0.007921 
				CHANNELS 3 Zrotation Xrotation Yrotation
				JOINT Spine1
				{
					OFFSET 0.003049 0.106663 -0.0005215 
					CHANNELS 3 Zrotation Xrotation Yrotation
					JOINT Neck
					{
						OFFSET 0 0 0 
						CHANNELS 3 Zrotation Xrotation Yrotation
						JOINT Neck1
						{
							OFFSET -0.00252 0.089216 0.0066935 
							CHANNELS 3 Zrotation Xrotation Yrotation
							JOINT Head
							{
								OFFSET -9e-005 0.08844 -0.0166515 
								CHANNELS 3 Zrotation Xrotation Yrotation
								End Site
								{
									OFFSET 0.000367 0.0906245 -0.0063595
								}
							}
						}
					}
					JOINT LeftShoulder
					{
						OFFSET 0 0 0 
						CHANNELS 3 Zrotation Xrotation Yrotation
						JOINT LeftArm
						{
							OFFSET 0.1861 0.047094 -0.0271585 
							CHANNELS 3 Zrotation Xrotation Yrotation
							JOINT LeftForeArm
							{
								OFFSET 0.257301 -0 0 
								CHANNELS 3 Zrotation Xrotation Yrotation
								JOINT LeftHand
								{
									OFFSET 0.182226 -0 -0 
									CHANNELS 3 Zrotation Xrotation Yrotation
									JOINT LeftFingerBase
									{
										OFFSET 0 0 0 
										CHANNELS 3 Zrotation Xrotation Yrotation
										JOINT LFingers
										{
											OFFSET 0.028114 -0 0 
											CHANNELS 3 Zrotation Xrotation Yrotation
											End Site
											{
												OFFSET 0.022666 -0 0
											}
										}
									}
									JOINT LThumb
									{
										OFFSET 0 0 0 
										CHANNELS 3 Zrotation Xrotation Yrotation
										End Site
										{
											OFFSET 0.0230125 -0 0.0230125
										}
									}
								}
							}
						}
					}
					JOINT RightShoulder
					{
						OFFSET 0 0 0 
						CHANNELS 3 Zrotation Xrotation Yrotation
						JOINT RightArm
						{
							OFFSET -0.165127 0.0613395 -0.0234705 
							CHANNELS 3 Zrotation Xrotation Yrotation
							JOINT RightForeArm
							{
								OFFSET -0.266957 -0 0 
								CHANNELS 3 Zrotation Xrotation Yrotation
								JOINT RightHand
								{
									OFFSET -0.178239 -0 -0 
									CHANNELS 3 Zrotation Xrotation Yrotation
									JOINT RightFingerBase
									{
										OFFSET 0 0 0 
										CHANNELS 3 Zrotation Xrotation Yrotation
										JOINT RFingers
										{
											OFFSET -0.0428735 -0 0 
											CHANNELS 3 Zrotation Xrotation Yrotation
											End Site
											{
												OFFSET -0.034566 -0 0
											}
										}
									}
									JOINT RThumb
									{
										OFFSET 0 0 0 
										CHANNELS 3 Zrotation Xrotation Yrotation
										End Site
										{
											OFFSET -0.0350935 -0 0.0350935
										}
									}
								}
							}
						}
					}
				}
			}
		}
	}
MOTION
Frames:	8
Frame Time:	0.0166667
0.054825 0.859505 1.91874 -5.84804 -1.20454 167.454 -0 0 -0 -31.545 -9.11429 -5.56994 -2.42705 26.2986 10.3624 -0.918435 -14.3252 -6.32369 -0.00849799 1.63081 0.593741 -0 0 -0 17.7074 -35.7013 12.1948 8.85378 44.8677 -21.241 -0.774604 -9.33816 -3.97689 0.143638 6.70301 -2.45167 -5.4297 9.47931 -0.370357 1.87221 1.9539 -0.818576 5.10423 -3.16746 -0.296253 -0.831616 -13.6259 6.18225 -7.56652 21.8085 11.5068 -0.177919 9.30507 4.83396 -0 0 -0 -82.7273 31.8731 -9.58488 18.2253 -5.40568 -32.8 -0 1.6378 -0 10.9123 6.01407 28.522 -7.125 0 0 -13.2606 -3.18369 58.2606 -0 0 -0 89.2965 4.21992 -4.07918 -14.4141 -3.2834 25.5409 -0 21.3618 -0 -8.9836 -0.197453 1.24851 7.125 0 -0 16.2604 4.88815 -28.7142 
0.05853 0.86244 1.90957 -6.00504 -1.52338 168.422 -0 0 -0 -31.5593 -7.12586 -5.85206 -1.99162 24.0283 9.33845 -0.856074 -13.9509 -6.09452 -0.00579106 1.35065 0.491737 -0 0 -0 17.4197 -35.7789 12.6113 6.73094 40.5021 -18.1125 -0.863446 -8.34619 -5.91951 0.228576 8.44243 -3.09669 -5.49065 9.44058 -0.477061 1.93799 1.82934 -0.970795 5.2293 -3.25413 -0.368094 -1.35483 -13.5703 6.17863 -7.34415 21.6266 11.5407 -0.023788 9.19173 4.84283 -0 0 -0 -82.988 32.4922 -9.00344 18.4056 -5.52206 -33.1532 -0 1.4553 -0 11.3232 5.90597 27.1969 -7.125 0 0 -13.034 -2.82374 57.0137 -0 0 -0 89.2263 4.41205 -4.42644 -14.5885 -3.36731 25.8657 -0 20.6224 -0 -9.32021 -0.254607 1.55092 7.125 0 -0 15.9241 4.87377 -28.4175 
0.062355 0.86432 1.89999 -6.27645 -1.80143 169.02 -0 0 -0 -31.6061 -5.26482 -5.5302 -1.58233 21.5946 8.28325 -0.828541 -13.5025 -6.00743 -0.000174611 0.2428 0.0884008 -0 0 -0 17.0853 -35.4084 13.8959 5.04188 36.097 -15.3896 -0.968401 -7.93994 -7.78771 0.258794 8.97617 -3.29591 -5.70232 9.25629 -0.287747 1.86584 1.91385 -0.728707 5.23696 -3.09327 -0.252768 -1.57143 -13.9592 6.07619 -7.10599 21.4391 11.3429 0.0613327 9.1729 4.74411 -0 0 -0 -82.6002 33.7589 -8.83002 18.6526 -5.68416 -33.6392 -0 1.5147 -0 11.0084 5.63405 26.7786 -7.125 0 0 -13.4376 -2.79146 56.5207 -0 0 -0 89.2103 4.76278 -4.58446 -14.9237 -3.53172 26.4912 -0 19.7192 -0 -9.95939 -0.39759 2.26315 7.125 0 -0 15.2738 4.87484 -27.7142 
0.066565 0.866205 1.88969 -6.40921 -1.90013 170.961 -0 0 -0 -31.3826 -3.13792 -5.3841 -1.26175 19.4093 7.36796 -1.06858 -12.7716 -7.0988 -9.52006e-005 -0.1753 -0.0638003 -0 0 -0 16.0247 -34.5253 14.3758 3.75779 31.9018 -13.0951 -1.32444 -8.79521 -10.1679 0.306286 9.75611 -3.58806 -5.73227 9.06462 -0.652044 1.8411 1.94217 -1.20359 5.27959 -2.89259 -0.495531 -1.32768 -13.5546 6.08109 -7.27481 20.9114 11.2422 -0.100315 8.94446 4.72792 -0 0 -0 -82.3063 35.0694 -8.27756 18.8992 -5.84901 -34.1264 -0 1.4232 -0 9.62283 5.24329 28.3243 -7.125 0 0 -14.691 -3.40342 57.7585 -0 0 -0 89.2282 5.15133 -5.0881 -15.2166 -3.67915 27.0399 -0 19.1525 -0 -10.6 -0.544797 2.90843 7.125 0 -0 14.6277 4.84438 -27.0702 
0.07108 0.86568 1.8805 -6.93547 -1.98666 171.257 -0 0 -0 -31.5522 -1.88306 -4.31083 -1.03206 17.637 6.64495 -1.23712 -12.3111 -7.90562 -0.0008521 0.509997 0.185607 -0 0 -0 15.3541 -33.8438 16.1728 2.82433 28.1509 -11.2306 -1.57688 -9.21765 -12.0921 0.426509 11.4829 -4.24022 -6.48554 9.17915 -0.424131 1.7333 1.89172 -0.987338 5.56896 -3.02553 -0.377827 -1.48746 -13.3124 6.03299 -7.18988 20.5533 11.1298 -0.0970062 8.76778 4.69225 -0 0 -0 -82.193 36.0276 -7.8044 19.0975 -5.98359 -34.5194 -0 1.1027 -0 9.09427 5.02005 28.6634 -7.125 0 0 -15.2115 -3.59127 57.9725 -0 0 -0 89.0179 5.85413 -5.44739 -15.511 -3.8309 27.5932 -0 18.424 -0 -11.1356 -0.484852 2.46149 7.125 0 -0 14.1768 4.56687 -27.5051 
0.075655 0.86501 1.87088 -7.11959 -2.09913 172.143 -0 0 -0 -31.3018 -0.72871 -3.40668 -0.873841 16.2826 6.10275 -1.53407 -11.8237 -9.31095 -0.00102338 0.564396 0.20541 -0 0 -0 14.5847 -33.1063 17.4406 2.17236 25.0055 -9.7741 -2.16624 -10.8621 -13.8376 0.491068 12.3048 -4.55352 -6.72207 9.01144 -0.339187 1.66972 1.96097 -0.883117 5.61822 -2.87155 -0.330916 -1.17018 -13.0336 6.10957 -7.44458 20.2887 11.1922 -0.2476 8.66053 4.74037 -0 0 -0 -81.7477 36.9555 -7.75139 19.2338 -6.07722 -34.7905 -0 0.7029 -0 10.8863 5.42304 26.1699 -7.125 0 0 -13.6596 -2.67757 55.8807 -0 0 -0 88.966 7.0929 -5.7824 -16.0777 -4.13307 28.6641 -0 17.2605 -0 -11.2004 0.304191 -1.53562 7.125 0 -0 14.4027 3.54478 -31.4633 
0.08073 0.86453 1.86075 -7.08866 -2.11659 173.565 -0 0 -0 -30.7527 0.409896 -2.84107 -0.786769 15.4779 5.78446 -1.88969 -11.3033 -11.0208 -0.00339776 1.02678 0.37376 -0 0 -0 13.7733 -31.7431 19.0071 1.72114 22.4588 -8.65328 -3.14018 -13.0248 -16.5085 0.345547 10.353 -3.81256 -6.82117 9.01932 -0.455634 1.71631 2.09716 -1.03029 5.7378 -2.70763 -0.408556 -1.33707 -13.2069 5.94262 -7.27693 20.337 10.9687 -0.195614 8.69024 4.63371 -0 0 -0 -81.4461 37.5228 -7.63623 19.2927 -6.11809 -34.908 -0 0.4574 -0 8.65216 4.69746 28.2884 -7.125 0 0 -15.7486 -3.58324 57.4962 -0 0 -0 88.5899 7.49408 -5.5441 -16.1931 -4.19634 28.8833 -0 16.905 -0 -11.2557 0.459228 -2.30607 7.125 0 -0 14.3918 3.33503 -32.2265 
0.084555 0.86238 1.85126 -7.26928 -2.13759 174.354 -0 0 -0 -30.6684 1.44365 -2.65344 -0.731692 14.9432 5.57449 -2.06947 -11.3203 -11.7663 -0.000112834 0.1831 0.0666003 -0 0 -0 12.8937 -31.1964 19.8742 1.48972 20.9919 -8.02798 -3.82992 -14.4305 -17.8874 0.225194 8.3805 -3.07365 -6.6335 8.94615 -0.332444 1.44886 2.29416 -0.833268 5.3217 -2.49816 -0.319003 -1.45527 -12.2931 6.032 -6.89915 19.2938 10.8375 -0.17209 8.15089 4.65482 -0 0 -0 -80.8111 38.2379 -7.85672 19.1348 -6.00917 -34.5936 -0 0.8816 -0 10.5907 5.63616 27.7109 -7.125 0 0 -13.7413 -3.07345 57.3667 -0 0 -0 88.4803 7.16111 -5.07479 -16.1782 -4.18818 28.8551 -0 16.9311 -0 -11.4373 0.493952 -2.44009 7.125 0 -0 14.2282 3.25897 -32.3632 
